<svg width="60" height="60" viewBox="0 0 40 40" fill="none" xmlns="http://www.w3.org/2000/svg">
<path d="M19.9999 28.3333C9.24992 28.3333 0.833252 24.6667 0.833252 20C0.833252 15.3333 9.24992 11.6667 19.9999 11.6667C30.7499 11.6667 39.1666 15.3333 39.1666 20C39.1666 24.6667 30.7499 28.3333 19.9999 28.3333ZM19.9999 13.3333C9.49992 13.3333 2.49992 16.75 2.49992 20C2.49992 23.25 9.49992 26.6667 19.9999 26.6667C30.4999 26.6667 37.4999 23.25 37.4999 20C37.4999 16.75 30.4999 13.3333 19.9999 13.3333Z" fill="#80DEEA"/>
<path d="M12.5833 37.1667C11.75 37.1667 11.0833 37 10.4167 36.5833C6.33332 34.25 7.41665 25.1667 12.75 15.8333C15.25 11.5 18.3333 7.83333 21.3333 5.49999C24.5833 2.99999 27.5 2.24999 29.5 3.41666C31.5833 4.58333 32.3333 7.49999 31.8333 11.5833C31.3333 15.4167 29.6666 19.9167 27.1666 24.25C24.6666 28.5833 21.5833 32.25 18.5833 34.5833C16.4167 36.25 14.3333 37.1667 12.5833 37.1667ZM27.4167 4.49999C26.0833 4.49999 24.3333 5.24999 22.4166 6.74999C19.5833 8.99999 16.6667 12.5 14.25 16.6667C8.99998 25.75 8.49998 33.5833 11.25 35.1667C12.6667 36 15 35.25 17.5833 33.25C20.4167 31 23.3333 27.5 25.75 23.3333C28.1666 19.1667 29.75 14.9167 30.25 11.3333C30.6666 7.99999 30.1667 5.66666 28.75 4.83333C28.3333 4.66666 27.9167 4.49999 27.4167 4.49999Z" fill="#80DEEA"/>
<path d="M27.4999 37.1667C23.3332 37.1667 17.3332 32.0833 12.8332 24.1667C7.41655 14.8333 6.33322 5.75 10.4166 3.41666C14.4999 1.08333 21.8332 6.5 27.2499 15.8333C29.7499 20.1667 31.4165 24.6667 31.9165 28.5C32.4999 32.5833 31.6666 35.4167 29.5832 36.6667C28.9166 37 28.2499 37.1667 27.4999 37.1667ZM11.2499 4.83333C8.49988 6.41666 8.99988 14.25 14.2499 23.3333C19.4999 32.4167 25.9999 36.75 28.7499 35.1667C30.1666 34.3333 30.6665 32 30.2499 28.6667C29.7499 25.0833 28.1666 20.8333 25.7499 16.6667C20.4999 7.58333 13.9999 3.25 11.2499 4.83333Z" fill="#80DEEA"/>
<path d="M20.0001 23.3333C21.841 23.3333 23.3334 21.841 23.3334 20C23.3334 18.1591 21.841 16.6667 20.0001 16.6667C18.1591 16.6667 16.6667 18.1591 16.6667 20C16.6667 21.841 18.1591 23.3333 20.0001 23.3333Z" fill="#80DEEA"/>
</svg>
