<svg width="60" height="60" viewBox="0 0 40 40" fill="none" xmlns="http://www.w3.org/2000/svg">
<g clipPath="url(#clip0_2023_37)">
<path d="M39.311 18.65L21.35 0.689068C20.9087 0.249015 20.3108 0.00190735 19.6875 0.00190735C19.0643 0.00190735 18.4664 0.249015 18.025 0.689068L14.4938 4.22032L18.6204 8.34688C19.1472 8.17127 19.7126 8.14585 20.2531 8.27346C20.7937 8.40106 21.288 8.67666 21.6807 9.06938C22.0734 9.46209 22.349 9.95639 22.4766 10.4969C22.6042 11.0374 22.5788 11.6028 22.4032 12.1297L26.3625 16.0891C27.0022 15.856 27.7022 15.8481 28.347 16.0667C28.9917 16.2854 29.5425 16.7175 29.9084 17.2916C30.2743 17.8657 30.4334 18.5475 30.3594 19.2242C30.2853 19.901 29.9826 20.5322 29.5012 21.0136C29.0198 21.495 28.3885 21.7978 27.7118 21.8718C27.035 21.9459 26.3532 21.7868 25.7791 21.4209C25.205 21.055 24.7729 20.5042 24.5543 19.8594C24.3356 19.2147 24.3435 18.5147 24.5766 17.875L20.9079 14.2063V23.9969C21.5549 24.2659 22.087 24.7534 22.4114 25.3744C22.7358 25.9955 22.832 26.7107 22.6831 27.3954C22.5343 28.0801 22.1499 28.6909 21.5969 29.1212C21.0439 29.5515 20.3575 29.7742 19.6572 29.7503C18.9569 29.7264 18.2872 29.4575 17.7649 28.9904C17.2425 28.5234 16.9006 27.8879 16.7988 27.1946C16.697 26.5014 16.8417 25.7944 17.2077 25.1969C17.5737 24.5994 18.1378 24.1493 18.8016 23.925V14.1563C18.3561 13.978 17.96 13.6951 17.6468 13.3315C17.3336 12.9679 17.1125 12.5342 17.0021 12.0672C16.8918 11.6002 16.8955 11.1134 17.0129 10.6481C17.1303 10.1828 17.3579 9.75257 17.6766 9.39375L13.1954 5.35938L0.689113 17.8688C0.249061 18.3101 0.00195313 18.908 0.00195312 19.5313C0.00195312 20.1545 0.249061 20.7524 0.689113 21.1938L18.65 39.1547C19.0914 39.5947 19.6893 39.8419 20.3125 39.8419C20.9358 39.8419 21.5337 39.5947 21.975 39.1547L39.311 21.8188C39.751 21.3774 39.9981 20.7795 39.9981 20.1563C39.9981 19.533 39.751 18.9351 39.311 18.4938" fill="#F05033"/>
</g>
<defs>
<clipPath id="clip0_2023_37">
<rect width="40" height="40" fill="white"/>
</clipPath>
</defs>
</svg>
