<svg width="60" height="60" viewBox="0 0 40 40" fill="none" xmlns="http://www.w3.org/2000/svg">
<path d="M34.1666 4.16667H5.83325L8.33325 32.5L19.9999 35.8333L31.6666 32.5L34.1666 4.16667Z" fill="#0277BD"/>
<path d="M20 6.66667V33.25L29.3333 30.5833L31.4167 6.66667H20Z" fill="#039BE5"/>
<path d="M27.5833 10.8333H20V14.1667H24.0833L23.8333 17.5H20V20.8333H23.6667L23.4167 24.5833L20 25.75V29.25L26.5833 27.0833L27.1667 17.5L27.5833 10.8333Z" fill="white"/>
<path d="M19.9999 10.8333V14.1667H12.5833L12.3333 10.8333H19.9999ZM16.1666 17.5L16.3333 20.8333H19.9999V17.5H16.1666ZM16.4999 22.5H13.1666L13.4166 27.0833L19.9999 29.25V25.75L16.5833 24.5833L16.4999 22.5Z" fill="#EEEEEE"/>
</svg>
