<svg width="60" height="60" viewBox="0 0 36 24" fill="none" xmlns="http://www.w3.org/2000/svg">
<path d="M17.7995 0C13.053 0 10.0864 2.66583 8.89976 7.9975C10.6797 5.33167 12.7563 4.3325 15.1296 4.99833C16.4838 5.37833 17.4517 6.4825 18.5234 7.70417C20.2677 9.69333 22.2872 11.9967 26.6993 11.9967C31.4458 11.9967 34.4124 9.33083 35.599 3.99833C33.8191 6.66417 31.7425 7.66417 29.3692 6.99833C28.0157 6.61833 27.0478 5.51417 25.9762 4.2925C24.2311 2.3025 22.2108 0 17.7995 0ZM8.89976 11.9967C4.15322 11.9967 1.18663 14.6625 0 19.995C1.77995 17.3292 3.85656 16.3292 6.22983 16.9958C7.58333 17.3767 8.55118 18.48 9.62286 19.7008C11.368 21.6908 13.3882 23.9942 17.7995 23.9942C22.546 23.9942 25.5126 21.3283 26.6993 15.9958C24.9193 18.6617 22.8427 19.6617 20.4694 18.995C19.1152 18.615 18.1473 17.5108 17.0757 16.29C15.3313 14.3 13.3118 11.9967 8.89976 11.9967Z" fill="#00ACC1"/>
</svg>
